<?xml version="1.0" encoding="UTF-8" standalone="no"?>
<!DOCTYPE svg PUBLIC "-//W3C//DTD SVG 1.1//EN" "http://www.w3.org/Graphics/SVG/1.1/DTD/svg11.dtd">
<svg width="456" height="456" viewBox="0 0 456 456" version="1.1" xmlns="http://www.w3.org/2000/svg" xmlns:xlink="http://www.w3.org/1999/xlink" xml:space="preserve" xmlns:serif="http://www.serif.com/" style="fill-rule:evenodd;clip-rule:evenodd;stroke-linejoin:round;stroke-miterlimit:2;">
    <!-- Definizione della sfumatura per la nuvola -->
    <defs>
        <linearGradient id="cloudGradient" x1="0%" y1="0%" x2="100%" y2="100%">
            <stop offset="0%" style="stop-color:#4A90E2;stop-opacity:1" />
            <stop offset="100%" style="stop-color:#2A6AC2;stop-opacity:1" />
        </linearGradient>
    </defs>

    <!-- Rettangolo di sfondo dell'icona con bordi arrotondati, centrato -->
    <rect x="128" y="128" width="200" height="200" rx="30" fill="#1A2A44" stroke="#FFFFFF" stroke-width="10" style="fill-rule:nonzero;stroke-linejoin:round;stroke-miterlimit:2;" />

    <!-- Sole (disegnato prima, quindi sotto la nuvola) -->
    <circle cx="278" cy="188" r="30" fill="#F5A623" style="fill-rule:nonzero;stroke-linejoin:round;stroke-miterlimit:2;" />
    <path d="M278,138 L278,128 M278,238 L278,248 M228,188 L218,188 M328,188 L338,188 M248,158 L238,148 M308,218 L318,228 M248,218 L238,228 M308,158 L318,148" stroke="#FFFFFF" stroke-width="5" style="fill:none;stroke-linejoin:round;stroke-miterlimit:2;" />

    <!-- Nuvole (composta da cerchi sovrapposti, ruotata di 180 gradi a sinistra) -->
    <g transform="rotate(180, 228, 228)" stroke="#FFFFFF" stroke-width="5" style="fill-rule:nonzero;stroke-linejoin:round;stroke-miterlimit:2;">
        <circle cx="228" cy="228" r="40" fill="url(#cloudGradient)" />
        <circle cx="188" cy="208" r="35" fill="url(#cloudGradient)" />
        <circle cx="268" cy="208" r="30" fill="url(#cloudGradient)" />
        <circle cx="208" cy="248" r="30" fill="url(#cloudGradient)" />
        <circle cx="248" cy="238" r="25" fill="url(#cloudGradient)" />
    </g>

    <!-- Pioggia -->
    <path d="M178,258 L158,298 M198,258 L178,298 M218,258 L198,298" stroke="#FFFFFF" stroke-width="10" style="fill:none;stroke-linejoin:round;stroke-miterlimit:2;" />

    <!-- Fiocco di neve -->
    <path d="M298,278 L308,278 M303,273 L303,283 M298,273 L308,283 M298,283 L308,273" stroke="#FFFFFF" stroke-width="5" style="fill:none;stroke-linejoin:round;stroke-miterlimit:2;" />
</svg>